<svg xmlns="http://www.w3.org/2000/svg" width="102" height="102" viewBox="0 0 102 102"><g transform="translate(0 -0.002)"><circle cx="51" cy="51" r="51" transform="translate(0 0.002)" fill="#5e3c16"/><path d="M185.422,153l-20.637-20.637h-9.407v8.7l4.821,4.821h-4.821v7.887l-21.413-21.413H123.485l-19.116,49.08,26.412,26.412q1.88.138,3.8.14a51,51,0,0,0,51-51Q185.577,154.973,185.422,153Z" transform="translate(-83.577 -105.988)" fill="#472e11"/><g transform="translate(20.792 26.37)"><path d="M153.616,181.438h-10.78l-4.285-11.148H118.932l-4.051,11.148H104.369l19.116-49.08h10.479ZM135.37,162.02l-6.763-18.212-6.629,18.212Z" transform="translate(-104.369 -132.358)" fill="#df871e"/><path d="M360.41,141.062v-8.7h9.407v8.7Zm0,40.375V145.883h9.407v35.554H360.41Z" transform="translate(-309.402 -132.358)" fill="#df871e"/></g></g></svg>