<svg xmlns="http://www.w3.org/2000/svg" width="101.988" height="101.988" viewBox="0 0 101.988 101.988"><path d="M101.988,50.994A50.994,50.994,0,1,1,50.994,0,50.91,50.91,0,0,1,101.988,50.994Z" fill="#004387"/><path d="M128.4,119.474l-4.588,53.2a40.19,40.19,0,0,1-49.215,0l-4.588-53.2Z" transform="translate(-48.209 -89.579)" fill="#006bc0"/><path d="M256,151.338V206.9l19.193-5.418,4.281-50.142Z" transform="translate(-205.004 -116.442)" fill="#0096dc"/><path d="M175.177,210.507H161.335l14.464-7.361.625-7.4H140.013l.637,7.545h14.616L141.242,210.3l.653,7.729h25.017l-.82,9.205-7.873,2.132-8.2-2.3-.205-5.74h-7.639l.956,11.317,15.09,4.264,15.089-4.264,1.87-22.143Z" transform="translate(-107.225 -153.879)" fill="#fff"/><g transform="translate(34.031 13.602)"><path d="M150.671,23.767V18.519h7.545V15.676H147.937V26.61h10.278V23.767Z" transform="translate(-147.937 -15.676)" fill="#fff"/><path d="M226.641,19.954V18.642h7.5V15.676H223.866v6.779h7.367v1.312h-7.367V26.61h10.278V19.954Z" transform="translate(-211.948 -15.676)" fill="#fff"/><path d="M301.351,19.954V18.642h7.5V15.676H298.576v6.779h7.367v1.312h-7.367V26.61h10.278V19.954Z" transform="translate(-274.93 -15.676)" fill="#fff"/></g></svg>