<svg xmlns="http://www.w3.org/2000/svg" width="55.326" height="53.96" viewBox="0 0 55.326 53.96"><path d="M163.98,383.44a27.666,27.666,0,0,0-8.742,53.913c1.384.253,1.888-.6,1.888-1.333,0-.657-.024-2.4-.037-4.706-7.695,1.673-9.318-3.707-9.318-3.707-1.258-3.2-3.072-4.047-3.072-4.047-2.512-1.717.19-1.681.19-1.681a5.808,5.808,0,0,1,4.237,2.85c2.467,4.228,6.475,3.007,8.051,2.3a5.913,5.913,0,0,1,1.756-3.7c-6.142-.7-12.6-3.07-12.6-13.672a10.7,10.7,0,0,1,2.848-7.423,9.938,9.938,0,0,1,.272-7.321s2.321-.744,7.606,2.836a26.233,26.233,0,0,1,13.851,0c5.281-3.58,7.6-2.836,7.6-2.836a9.941,9.941,0,0,1,.277,7.321,10.676,10.676,0,0,1,2.843,7.423c0,10.627-6.468,12.966-12.631,13.65a6.605,6.605,0,0,1,1.878,5.124c0,3.7-.034,6.682-.034,7.589,0,.739.5,1.6,1.9,1.33a27.667,27.667,0,0,0-8.763-53.909Z" transform="translate(-136.32 -383.44)" fill="#fff" fill-rule="evenodd"/></svg>