<svg xmlns="http://www.w3.org/2000/svg" width="102.433" height="102.433" viewBox="0 0 102.433 102.433"><path d="M102.433,51.216A51.216,51.216,0,1,1,51.216,0,51.132,51.132,0,0,1,102.433,51.216Z" fill="#c53200"/><path d="M123.644,119.474l-4.14,48.011a36.269,36.269,0,0,1-44.249.127l-4.15-48.138Z" transform="translate(-46.048 -87.107)" fill="#e64c18"/><path d="M256.546,151.249v49.994l17.27-4.875,3.852-45.118Z" transform="translate(-205.22 -114.381)" fill="#f36518"/><path d="M140.9,195.528l1.694,20.054h22.51l-.736,8.284-7.085,1.919-7.379-2.067-.185-5.165h-6.873l.86,10.182,13.577,3.837,13.577-3.837,1.683-19.924H148.839l-.588-6.493h0l24.854-.13.562-6.659Z" transform="translate(-105.959 -152.387)" fill="#fff"/><path d="M112.657,16.8v3.445h-3.292V16.8H106.3v9.876h3.062V23.457h3.292v3.215h3.062V16.8Z" transform="translate(-76.26 1.026)" fill="#fff"/><path d="M192.462,16.8h-9.417v3.445h3.062v6.507H189.4V20.241h3.062Z" transform="translate(-142.131 1.026)" fill="#fff"/><path d="M353.336,24.074V17.337h-3.292v9.876h8.039V24.074Z" transform="translate(-285.473 0.561)" fill="#fff"/><path d="M267.134,17.337l-2.3,3.522-2.3-3.522h-3.292v9.876h3.292v-4.9l2.3,3.522,2.3-3.522v4.9h3.292V17.337Z" transform="translate(-207.54 0.561)" fill="#fff"/></svg>