<svg xmlns="http://www.w3.org/2000/svg" width="101" height="101" viewBox="0 0 101 101"><path d="M494.017,161.56h0v37.259a50.692,50.692,0,0,0,0-37.259Z" transform="translate(-396.564 -129.69)" fill="#efa700"/><path d="M137.6,474.482a50.258,50.258,0,0,0,29.1-9.22H108.5A50.26,50.26,0,0,0,137.6,474.482Z" transform="translate(-87.098 -373.482)" fill="#efa700"/><path d="M139.359,0A50.251,50.251,0,0,0,110.7,8.919h57.327A50.251,50.251,0,0,0,139.359,0Z" transform="translate(-88.859)" fill="#efa700"/><path d="M82.22,443.243A50.533,50.533,0,0,1,75.988,438,50.5,50.5,0,0,0,82.22,443.243Z" transform="translate(-60.998 -351.594)" fill="#e4ba42"/><path d="M0,111.513a50.334,50.334,0,0,0,14.591,35.507V76.006A50.334,50.334,0,0,0,0,111.513Z" transform="translate(0 -61.013)" fill="#efa700"/><path d="M162.582,68.138H96.893v73.817h66.013a50.6,50.6,0,0,0,7.8-9.36V77.8A50.566,50.566,0,0,0,162.582,68.138Z" transform="translate(-77.779 -54.697)" fill="#efa700"/><path d="M73.968,435.994c.131.133.266.263.4.395-.133-.132-.267-.262-.4-.395Z" transform="translate(-59.377 -349.987)" fill="#f2f2f2"/><path d="M484.687,362.018q-.514,1.128-1.08,2.225Q484.174,363.146,484.687,362.018Z" transform="translate(-388.208 -290.604)" fill="#f2f2f2"/><path d="M403.5,446.859h0a50.624,50.624,0,0,0,5.53-4.522h0a50.633,50.633,0,0,1-5.53,4.522Z" transform="translate(-323.901 -355.079)" fill="#f2f2f2"/><path d="M475.64,378.82q-.592,1.081-1.236,2.13Q475.047,379.9,475.64,378.82Z" transform="translate(-380.82 -304.092)" fill="#f2f2f2"/><path d="M107.582,464.6c.061.043.121.088.181.131h0C107.7,464.685,107.643,464.64,107.582,464.6Z" transform="translate(-86.36 -372.948)" fill="#f2f2f2"/><path d="M78.49,49.735H144.18a50.07,50.07,0,0,0-5.639-4.522H81.213a50.606,50.606,0,0,0-7.245,6.074V122.3c.131.133.266.263.4.395a50.532,50.532,0,0,0,6.232,5.248c.061.043.121.088.181.131h58.192a50.629,50.629,0,0,0,5.53-4.522H78.49Z" transform="translate(-59.377 -36.294)" fill="#f2f2f2"/><path d="M471.081,117.11h0v54.8q.334-.515.656-1.04.643-1.048,1.236-2.13.3-.541.58-1.089.567-1.1,1.08-2.225t.973-2.284V125.878A50.213,50.213,0,0,0,471.081,117.11Z" transform="translate(-378.153 -94.008)" fill="#f2f2f2"/><path d="M315.531,190.494c-1.406-4.076-7.169-4.076-8.293-.7s2.671,5.341,8.574,7.309,9.558,7.169,8.855,11.807S322,219.59,310.331,219.59c-7.292,0-11.344-4.557-13.358-7.975l6.611-3.973s2.249,4.779,6.466,4.779,5.9-1.406,5.9-4.639c0-3.936-13.635-5.341-15.743-12.088s.7-16.305,10.542-15.6a15.253,15.253,0,0,1,11.338,5.662Z" transform="translate(-238.39 -144.537)" fill="#f2f2f2"/><path d="M169.936,183.805v26.988c0,3.233-2.811,4.92-5.622,4.357s-4.076-3.936-4.076-3.936l-6.466,4.357s1.406,6.466,10.261,7.028,13.916-4.779,13.916-9.277V183.805Z" transform="translate(-123.437 -147.547)" fill="#f2f2f2"/></svg>