<?xml version="1.0" encoding="utf-8"?>
<!-- Generator: Adobe Illustrator 24.2.1, SVG Export Plug-In . SVG Version: 6.00 Build 0)  -->
<svg version="1.1" id="Capa_1" xmlns="http://www.w3.org/2000/svg" xmlns:xlink="http://www.w3.org/1999/xlink" x="0px" y="0px"
	 viewBox="0 0 512 512" style="enable-background:new 0 0 512 512;" xml:space="preserve">
<style type="text/css">
	.st0{fill:#FFFFFF;}
</style>
<path class="st0" d="M437,75C388.7,26.6,324.4,0,256,0S123.3,26.6,75,75C26.6,123.3,0,187.6,0,256s26.6,132.7,75,181
	c48.4,48.4,112.6,75,181,75s132.7-26.6,181-75c48.4-48.4,75-112.6,75-181S485.4,123.3,437,75z M395.3,284.4L266.6,413.1
	c-2.9,2.9-6.8,4.4-10.6,4.4s-7.7-1.5-10.6-4.4L116.7,284.4C100.1,267.8,91,245.8,91,222.3c0-23.4,9.1-45.5,25.7-62.1
	c16.6-16.6,38.6-25.7,62.1-25.7c23.5,0,45.5,9.1,62.1,25.7l15.1,15.1l15.1-15.1c16.6-16.6,38.6-25.7,62.1-25.7s45.5,9.1,62.1,25.7
	c16.6,16.6,25.7,38.6,25.7,62.1C421,245.8,411.9,267.8,395.3,284.4z"/>
</svg>
