<svg xmlns="http://www.w3.org/2000/svg" xmlns:xlink="http://www.w3.org/1999/xlink" width="476.59" height="367.497" viewBox="0 0 476.59 367.497"><defs><radialGradient id="a" cx="0.807" cy="-0.023" r="1.117" gradientTransform="matrix(-1.08, 0, 0, 1, 1.704, 0)" gradientUnits="objectBoundingBox"><stop offset="0" stop-color="#e39a65"/><stop offset="0.474" stop-color="#a92ffb"/><stop offset="0.595" stop-color="#881bfa"/><stop offset="0.742" stop-color="#6507fa"/><stop offset="0.802" stop-color="#0d0c6f"/></radialGradient><radialGradient id="b" cx="0.99" cy="0.384" r="1.712" gradientTransform="matrix(-0.573, 0, 0, 1, 1.348, 0)" gradientUnits="objectBoundingBox"><stop offset="0" stop-color="#e39a65"/><stop offset="0.474" stop-color="#a92ffb"/><stop offset="0.568" stop-color="#881bfa"/><stop offset="0.683" stop-color="#6507fa"/><stop offset="0.738" stop-color="#0d0c6f"/></radialGradient><radialGradient id="c" cx="0.899" cy="0.074" r="1.524" gradientTransform="matrix(-0.577, 0, 0, 1, 1.25, 0)" gradientUnits="objectBoundingBox"><stop offset="0" stop-color="#e39a65"/><stop offset="0.474" stop-color="#a92ffb"/><stop offset="0.588" stop-color="#881bfa"/><stop offset="0.726" stop-color="#6507fa"/><stop offset="1" stop-color="#3919bb"/></radialGradient><radialGradient id="d" cx="1.116" cy="0.206" r="1.121" gradientTransform="matrix(-1.077, 0, 0, 1, 2.365, 0)" xlink:href="#c"/><linearGradient id="e" x1="1" y1="0.5" x2="0" y2="0.5" gradientUnits="objectBoundingBox"><stop offset="0" stop-color="#3919bb"/><stop offset="1" stop-color="#6507fa"/></linearGradient><radialGradient id="f" cx="2.084" cy="-0.321" r="2.658" gradientTransform="matrix(-1.077, 0, 0, 1, 4.45, 0)" xlink:href="#c"/></defs><g transform="translate(-287.089 -79.959) rotate(-2)"><g transform="translate(283.76 100.318)"><path d="M372.876,214.853,604.362,101.082a6.912,6.912,0,0,1,4.724-.578h0l.021.005,4.287,1.271-1.509.3a6.135,6.135,0,0,1,1.414,2.253l52.348,144.689a8.148,8.148,0,0,1-4.243,9.736L429.92,372.536a7.43,7.43,0,0,1-1.7.592l.574,1.064-4.1-1.224.01,0a5.964,5.964,0,0,1-3.725-3.686L368.633,224.589A8.15,8.15,0,0,1,372.876,214.853Z" transform="translate(-368.225 -100.318)" fill="url(#a)"/><path d="M270.568,333.61l-.082.084L499.134,221.318c3.365-1.653,9.239-1.446,13.124.463l147.728,72.605,4.925-1.6-1.384,5.883-.006,0a3.671,3.671,0,0,1-2.217,2.355L430.542,414.435c-3.363,1.653-9.238,1.445-13.122-.463l-148.1-72.79c-1.828-.9-2.877-2.012-3.138-3.113l-.01.008-1.413-5.726Z" transform="translate(-200.587 -55.99)" fill="url(#b)"/><path d="M430.317,411.028l232.4-114.22c3.387-1.664,2.962-4.572-.948-6.5L512.612,217.006c-3.912-1.922-9.828-2.131-13.215-.466L267,330.76c-3.387,1.664-2.962,4.572.949,6.494L417.1,410.563C421.012,412.484,426.93,412.694,430.317,411.028Z" transform="translate(-200.606 -57.759)" fill="url(#c)"/><path d="M267.936,314.713,417.094,388.02c3.91,1.923,9.828,2.131,13.216.467l232.4-114.22a3.94,3.94,0,0,0,2.114-2.052c.447,1.326-.209,2.656-2.114,3.591l-232.4,114.22c-3.387,1.666-9.305,1.456-13.216-.466L267.936,316.253c-2.579-1.267-3.607-2.957-3.062-4.444A5.6,5.6,0,0,0,267.936,314.713Z" transform="translate(-200.597 -36.757)" fill="#fff"/><g transform="translate(127.399 184.254)" opacity="0.4"><path d="M342.2,263.98l7.846-3.856c.631-.31.55-.851-.177-1.208l-9.26-4.552a3.162,3.162,0,0,0-2.459-.086l-7.846,3.856c-.629.31-.55.851.177,1.208l9.26,4.552A3.163,3.163,0,0,0,342.2,263.98Z" transform="translate(-118.339 -227.721)" fill="#06033e"/><path d="M349.733,268.329l7.846-3.857c.629-.31.55-.849-.177-1.207l-9.26-4.552a3.163,3.163,0,0,0-2.459-.088l-7.846,3.857c-.631.31-.552.849.177,1.207l9.26,4.552A3.163,3.163,0,0,0,349.733,268.329Z" transform="translate(-137.987 -226.113)" fill="#06033e"/><path d="M357.262,272.675l7.846-3.856c.631-.31.552-.851-.175-1.208l-9.262-4.552a3.158,3.158,0,0,0-2.457-.086l-7.846,3.856c-.631.31-.552.851.175,1.208l9.262,4.552A3.158,3.158,0,0,0,357.262,272.675Z" transform="translate(-157.634 -224.506)" fill="#06033e"/><path d="M366.191,268.888l7.846-3.856c.629-.31.55-.851-.177-1.208L366.086,260a3.162,3.162,0,0,0-2.459-.086l-7.846,3.856c-.631.31-.55.851.177,1.208l7.774,3.822A3.162,3.162,0,0,0,366.191,268.888Z" transform="translate(-183.32 -225.636)" fill="#06033e"/><path d="M373.72,273.235l7.846-3.856c.631-.31.552-.851-.175-1.208l-7.775-3.82a3.153,3.153,0,0,0-2.457-.086l-7.846,3.856c-.631.31-.552.851.175,1.208l7.775,3.82A3.159,3.159,0,0,0,373.72,273.235Z" transform="translate(-202.967 -224.028)" fill="#06033e"/><path d="M381.25,277.583l7.846-3.856c.631-.31.552-.851-.175-1.208l-7.775-3.82a3.159,3.159,0,0,0-2.457-.088l-7.848,3.856c-.629.31-.55.851.177,1.208l7.775,3.822A3.159,3.159,0,0,0,381.25,277.583Z" transform="translate(-222.614 -222.421)" fill="#06033e"/><path d="M388.781,281.931l7.846-3.857c.629-.31.55-.849-.177-1.208l-7.773-3.82a3.162,3.162,0,0,0-2.459-.086l-7.846,3.856c-.629.31-.55.851.177,1.208l7.773,3.82A3.163,3.163,0,0,0,388.781,281.931Z" transform="translate(-242.261 -220.813)" fill="#06033e"/><path d="M396.31,286.278l7.848-3.856c.629-.31.55-.851-.177-1.208l-7.773-3.82a3.163,3.163,0,0,0-2.459-.088l-7.846,3.857c-.631.31-.552.849.177,1.208l7.774,3.82A3.158,3.158,0,0,0,396.31,286.278Z" transform="translate(-261.909 -219.206)" fill="#06033e"/><path d="M403.841,290.626l7.846-3.856c.631-.31.552-.851-.175-1.208l-7.775-3.822a3.159,3.159,0,0,0-2.457-.086l-7.846,3.856c-.631.31-.552.851.175,1.208l7.775,3.822A3.159,3.159,0,0,0,403.841,290.626Z" transform="translate(-281.556 -217.598)" fill="#06033e"/><path d="M411.371,294.975l7.846-3.857c.631-.31.552-.851-.177-1.208l-7.774-3.82A3.152,3.152,0,0,0,408.81,286l-7.848,3.856c-.629.31-.55.851.177,1.208l7.773,3.82A3.169,3.169,0,0,0,411.371,294.975Z" transform="translate(-301.202 -215.991)" fill="#06033e"/><path d="M418.9,299.321l7.846-3.856c.629-.31.55-.851-.177-1.208l-7.774-3.822a3.163,3.163,0,0,0-2.459-.086l-7.846,3.856c-.629.311-.55.851.177,1.208l7.773,3.822A3.162,3.162,0,0,0,418.9,299.321Z" transform="translate(-320.85 -214.383)" fill="#06033e"/><path d="M426.432,303.669l7.848-3.857c.629-.31.55-.849-.177-1.207l-7.775-3.822a3.159,3.159,0,0,0-2.457-.086l-7.846,3.856c-.631.31-.552.851.175,1.208l7.775,3.82A3.159,3.159,0,0,0,426.432,303.669Z" transform="translate(-340.497 -212.775)" fill="#06033e"/><path d="M433.962,308.016l7.846-3.856c.631-.31.552-.851-.175-1.208l-7.775-3.82a3.159,3.159,0,0,0-2.457-.088l-7.846,3.857c-.631.31-.552.851.175,1.207l7.775,3.822A3.158,3.158,0,0,0,433.962,308.016Z" transform="translate(-360.144 -211.168)" fill="#06033e"/><path d="M377.285,266.83l7.846-3.857c.631-.31.552-.851-.175-1.208l-7.775-3.82a3.158,3.158,0,0,0-2.457-.086l-7.846,3.856c-.631.31-.552.851.175,1.208l7.775,3.82A3.158,3.158,0,0,0,377.285,266.83Z" transform="translate(-212.269 -226.397)" fill="#06033e"/><path d="M369.643,262.417l7.846-3.856c.631-.31.55-.851-.177-1.208l-7.773-3.822a3.168,3.168,0,0,0-2.459-.086l-7.846,3.856c-.629.31-.55.851.177,1.208l7.773,3.822A3.162,3.162,0,0,0,369.643,262.417Z" transform="translate(-192.328 -228.028)" fill="#06033e"/><path d="M356.361,259.2l16.9-8.3c.631-.31.55-.851-.177-1.208l-7.773-3.82a3.163,3.163,0,0,0-2.459-.088l-16.9,8.306c-.629.31-.55.851.177,1.208l7.775,3.82A3.158,3.158,0,0,0,356.361,259.2Z" transform="translate(-166.73 -230.864)" fill="#06033e"/><path d="M363.692,253.4l13.714-6.739c.629-.31.55-.851-.177-1.208l-7.773-3.82a3.163,3.163,0,0,0-2.459-.088l-13.713,6.741c-.631.31-.552.851.175,1.208l7.775,3.82A3.152,3.152,0,0,0,363.692,253.4Z" transform="translate(-182.67 -232.429)" fill="#06033e"/><path d="M384.815,271.177l7.846-3.856c.631-.31.55-.851-.177-1.208l-7.773-3.82a3.163,3.163,0,0,0-2.459-.088l-7.846,3.857c-.629.31-.55.849.177,1.207l7.773,3.822A3.162,3.162,0,0,0,384.815,271.177Z" transform="translate(-231.916 -224.789)" fill="#06033e"/><path d="M392.346,275.525l7.846-3.857c.629-.31.55-.849-.177-1.207l-7.774-3.822a3.162,3.162,0,0,0-2.459-.086l-7.846,3.856c-.629.31-.55.851.177,1.208l7.773,3.82A3.157,3.157,0,0,0,392.346,275.525Z" transform="translate(-251.563 -223.182)" fill="#06033e"/><path d="M399.876,279.872l7.848-3.856c.629-.31.55-.851-.177-1.208l-7.775-3.82a3.159,3.159,0,0,0-2.457-.088l-7.846,3.857c-.631.31-.552.851.175,1.208l7.775,3.82A3.158,3.158,0,0,0,399.876,279.872Z" transform="translate(-271.21 -221.574)" fill="#06033e"/><path d="M407.406,284.22l7.846-3.856c.631-.31.552-.851-.175-1.208l-7.775-3.822a3.159,3.159,0,0,0-2.457-.086L397,279.1c-.631.31-.552.851.175,1.208l7.775,3.822A3.158,3.158,0,0,0,407.406,284.22Z" transform="translate(-290.857 -219.967)" fill="#06033e"/><path d="M414.936,288.568l7.846-3.857c.631-.31.55-.851-.177-1.208l-7.774-3.82a3.162,3.162,0,0,0-2.459-.086l-7.846,3.856c-.629.31-.55.851.177,1.208l7.773,3.82A3.163,3.163,0,0,0,414.936,288.568Z" transform="translate(-310.504 -218.359)" fill="#06033e"/><path d="M422.468,292.915l7.846-3.856c.629-.31.55-.851-.177-1.208l-7.773-3.82a3.163,3.163,0,0,0-2.459-.088l-7.846,3.856c-.631.311-.55.851.177,1.208l7.773,3.822A3.162,3.162,0,0,0,422.468,292.915Z" transform="translate(-330.152 -216.752)" fill="#06033e"/><path d="M430,297.263l7.846-3.857c.631-.308.552-.849-.175-1.207l-7.775-3.822a3.159,3.159,0,0,0-2.457-.086l-7.846,3.856c-.631.31-.552.851.175,1.208l7.775,3.82A3.153,3.153,0,0,0,430,297.263Z" transform="translate(-349.799 -215.144)" fill="#06033e"/><path d="M437.527,301.61l7.846-3.856c.631-.31.552-.851-.175-1.208l-7.775-3.82a3.152,3.152,0,0,0-2.457-.086l-7.848,3.856c-.629.31-.55.851.177,1.208l7.775,3.82A3.158,3.158,0,0,0,437.527,301.61Z" transform="translate(-369.446 -213.536)" fill="#06033e"/><path d="M445.058,305.958,452.9,302.1c.629-.31.55-.851-.177-1.208l-7.773-3.822a3.162,3.162,0,0,0-2.459-.086l-7.846,3.856c-.629.31-.55.851.177,1.208l7.774,3.822A3.162,3.162,0,0,0,445.058,305.958Z" transform="translate(-389.093 -211.929)" fill="#06033e"/><path d="M452.682,314.918,469.8,306.5c.631-.31.55-.851-.177-1.208l-7.774-3.82a3.162,3.162,0,0,0-2.459-.086L442.272,309.8c-.629.31-.55.851.177,1.208l7.773,3.822A3.162,3.162,0,0,0,452.682,314.918Z" transform="translate(-418.257 -210.301)" fill="#06033e"/><path d="M469,306.1l14.45-7.1c.631-.31.552-.851-.175-1.208l-7.775-3.82a3.165,3.165,0,0,0-2.457-.088l-14.45,7.1c-.631.31-.552.851.175,1.208l7.775,3.82A3.153,3.153,0,0,0,469,306.1Z" transform="translate(-458.167 -213.077)" fill="#06033e"/><path d="M398,270.327l7.846-3.857c.629-.31.55-.851-.177-1.208l-7.774-3.82a3.163,3.163,0,0,0-2.459-.086l-7.846,3.856c-.629.31-.55.851.177,1.208l7.773,3.82A3.169,3.169,0,0,0,398,270.327Z" transform="translate(-266.322 -225.104)" fill="#06033e"/><path d="M390.285,265.871l7.848-3.857c.629-.308.55-.849-.177-1.207l-7.775-3.822a3.158,3.158,0,0,0-2.457-.086l-7.846,3.856c-.631.31-.552.851.175,1.208l7.775,3.82A3.159,3.159,0,0,0,390.285,265.871Z" transform="translate(-246.187 -226.751)" fill="#06033e"/><path d="M382.567,261.415l7.846-3.856c.631-.31.552-.851-.177-1.208l-7.773-3.822a3.159,3.159,0,0,0-2.457-.086l-7.847,3.856c-.629.31-.55.851.177,1.208l7.775,3.822A3.158,3.158,0,0,0,382.567,261.415Z" transform="translate(-226.05 -228.399)" fill="#06033e"/><path d="M374.851,256.959,382.7,253.1c.629-.31.55-.851-.177-1.208l-7.773-3.82a3.163,3.163,0,0,0-2.459-.088l-7.846,3.857c-.631.31-.55.851.177,1.207l7.773,3.822A3.163,3.163,0,0,0,374.851,256.959Z" transform="translate(-205.915 -230.047)" fill="#06033e"/><path d="M405.534,274.674l7.846-3.856c.629-.31.55-.851-.177-1.208l-7.773-3.82a3.157,3.157,0,0,0-2.459-.088l-7.846,3.856c-.631.311-.55.851.177,1.208l7.773,3.822A3.163,3.163,0,0,0,405.534,274.674Z" transform="translate(-285.969 -223.496)" fill="#06033e"/><path d="M413.063,279.022l7.846-3.856c.631-.311.552-.851-.175-1.208l-7.775-3.822a3.159,3.159,0,0,0-2.457-.086l-7.846,3.856c-.631.31-.552.851.175,1.208l7.775,3.82A3.159,3.159,0,0,0,413.063,279.022Z" transform="translate(-305.617 -221.889)" fill="#06033e"/><path d="M420.593,283.369l7.846-3.856c.631-.31.552-.851-.177-1.208l-7.773-3.82a3.159,3.159,0,0,0-2.457-.088l-7.847,3.857c-.629.31-.55.851.177,1.207l7.775,3.822A3.158,3.158,0,0,0,420.593,283.369Z" transform="translate(-325.263 -220.281)" fill="#06033e"/><path d="M428.124,287.717l7.846-3.856c.629-.31.55-.851-.177-1.208l-7.774-3.822a3.162,3.162,0,0,0-2.459-.086l-7.846,3.856c-.629.31-.55.851.177,1.208l7.773,3.822A3.162,3.162,0,0,0,428.124,287.717Z" transform="translate(-344.911 -218.674)" fill="#06033e"/><path d="M435.653,292.064l7.848-3.856c.629-.31.55-.851-.177-1.208l-7.775-3.82a3.159,3.159,0,0,0-2.457-.086l-7.846,3.856c-.631.31-.552.851.177,1.208l7.773,3.82A3.153,3.153,0,0,0,435.653,292.064Z" transform="translate(-364.558 -217.066)" fill="#06033e"/><path d="M443.184,296.412l7.846-3.856c.631-.31.552-.851-.175-1.208l-7.775-3.82a3.153,3.153,0,0,0-2.457-.088l-7.846,3.856c-.631.31-.552.851.175,1.208l7.775,3.822A3.159,3.159,0,0,0,443.184,296.412Z" transform="translate(-384.205 -215.459)" fill="#06033e"/><path d="M450.715,300.76l7.846-3.857c.631-.31.55-.849-.177-1.207l-7.773-3.822a3.162,3.162,0,0,0-2.459-.086l-7.846,3.856c-.629.31-.55.851.177,1.208l7.773,3.82A3.163,3.163,0,0,0,450.715,300.76Z" transform="translate(-403.852 -213.851)" fill="#06033e"/><path d="M458.245,305.107l7.846-3.856c.629-.31.55-.851-.177-1.208l-7.773-3.82a3.163,3.163,0,0,0-2.459-.088l-7.846,3.857c-.629.31-.55.851.177,1.208l7.773,3.82A3.163,3.163,0,0,0,458.245,305.107Z" transform="translate(-423.499 -212.244)" fill="#06033e"/><path d="M465.775,309.455l7.848-3.856c.629-.31.55-.851-.177-1.208l-7.775-3.822a3.159,3.159,0,0,0-2.457-.086l-7.846,3.856c-.631.31-.552.851.175,1.208l7.775,3.822A3.159,3.159,0,0,0,465.775,309.455Z" transform="translate(-443.147 -210.636)" fill="#06033e"/><path d="M394.037,259.573l7.846-3.856c.631-.31.552-.851-.177-1.208l-7.773-3.822a3.159,3.159,0,0,0-2.457-.086l-7.848,3.856c-.629.31-.55.851.177,1.208l7.773,3.822A3.163,3.163,0,0,0,394.037,259.573Z" transform="translate(-255.977 -229.08)" fill="#06033e"/><path d="M386.545,255.247l7.846-3.856c.629-.31.55-.851-.177-1.208l-7.773-3.822a3.162,3.162,0,0,0-2.459-.086l-7.846,3.856c-.629.31-.55.851.177,1.208l7.773,3.822A3.162,3.162,0,0,0,386.545,255.247Z" transform="translate(-236.427 -230.68)" fill="#06033e"/><path d="M379.053,250.921l7.846-3.856c.629-.31.55-.851-.177-1.208l-7.773-3.822a3.162,3.162,0,0,0-2.459-.086l-7.846,3.856c-.631.31-.55.851.177,1.208l7.773,3.822A3.162,3.162,0,0,0,379.053,250.921Z" transform="translate(-216.878 -232.279)" fill="#06033e"/><path d="M371.559,246.6l7.847-3.856c.629-.31.55-.851-.177-1.208l-7.775-3.822a3.165,3.165,0,0,0-2.457-.086l-7.846,3.856c-.631.31-.552.851.175,1.208l7.775,3.822A3.158,3.158,0,0,0,371.559,246.6Z" transform="translate(-197.329 -233.879)" fill="#06033e"/><path d="M374.059,241.457l7.848-3.857c.629-.31.55-.849-.177-1.208l-2.57-1.263a3.162,3.162,0,0,0-2.459-.086l-7.846,3.856c-.629.31-.55.851.177,1.208l2.57,1.263A3.159,3.159,0,0,0,374.059,241.457Z" transform="translate(-212.227 -234.833)" fill="#06033e"/><path d="M383.837,247.1l7.848-3.856c.629-.31.55-.851-.177-1.208l-2.57-1.263a3.163,3.163,0,0,0-2.459-.088l-7.846,3.857c-.629.31-.55.851.177,1.208l2.57,1.263A3.159,3.159,0,0,0,383.837,247.1Z" transform="translate(-237.739 -232.746)" fill="#06033e"/><path d="M391.3,251.41l7.846-3.856c.629-.31.55-.851-.177-1.208l-2.57-1.263a3.159,3.159,0,0,0-2.457-.088l-7.848,3.857c-.629.31-.55.851.177,1.208l2.57,1.263A3.162,3.162,0,0,0,391.3,251.41Z" transform="translate(-257.207 -231.153)" fill="#06033e"/><path d="M398.76,255.718l7.846-3.856c.631-.31.552-.851-.175-1.208l-2.57-1.263a3.163,3.163,0,0,0-2.459-.088l-7.846,3.857c-.631.31-.55.849.177,1.207l2.57,1.264A3.158,3.158,0,0,0,398.76,255.718Z" transform="translate(-276.675 -229.56)" fill="#06033e"/><path d="M406.223,260.026l7.846-3.856c.629-.31.55-.851-.177-1.208l-2.57-1.263a3.163,3.163,0,0,0-2.459-.088l-7.846,3.857c-.629.31-.55.849.177,1.207l2.57,1.264A3.162,3.162,0,0,0,406.223,260.026Z" transform="translate(-296.143 -227.967)" fill="#06033e"/><path d="M447.88,284.076l7.846-3.856c.629-.31.55-.851-.177-1.208l-2.57-1.263a3.158,3.158,0,0,0-2.457-.086l-7.847,3.856c-.629.31-.55.851.177,1.208l2.57,1.263A3.162,3.162,0,0,0,447.88,284.076Z" transform="translate(-404.829 -219.074)" fill="#06033e"/><path d="M455.341,288.384l7.846-3.856c.631-.31.552-.851-.175-1.208l-2.571-1.263a3.158,3.158,0,0,0-2.457-.086l-7.846,3.856c-.631.31-.552.851.177,1.208l2.57,1.263A3.153,3.153,0,0,0,455.341,288.384Z" transform="translate(-424.297 -217.481)" fill="#06033e"/><path d="M462.8,292.692l7.846-3.856c.629-.31.55-.851-.177-1.208l-2.57-1.263a3.162,3.162,0,0,0-2.459-.086l-7.846,3.856c-.629.31-.55.851.177,1.208l2.57,1.263A3.163,3.163,0,0,0,462.8,292.692Z" transform="translate(-443.765 -215.888)" fill="#06033e"/><path d="M470.264,297l7.846-3.856c.631-.31.552-.851-.177-1.208l-2.57-1.263a3.159,3.159,0,0,0-2.457-.086l-7.846,3.856c-.631.31-.552.851.175,1.208l2.571,1.263A3.158,3.158,0,0,0,470.264,297Z" transform="translate(-463.233 -214.295)" fill="#06033e"/><path d="M401.568,263.921l7.846-3.857c.629-.31.55-.851-.177-1.207l-7.773-3.822a3.162,3.162,0,0,0-2.459-.086l-7.846,3.856c-.629.31-.55.851.177,1.208l7.773,3.82A3.163,3.163,0,0,0,401.568,263.921Z" transform="translate(-275.624 -227.472)" fill="#06033e"/><path d="M409.1,268.268l7.848-3.856c.629-.31.55-.851-.177-1.208l-7.775-3.82a3.159,3.159,0,0,0-2.457-.088l-7.846,3.856c-.631.311-.552.851.175,1.208l7.775,3.822A3.159,3.159,0,0,0,409.1,268.268Z" transform="translate(-295.271 -225.865)" fill="#06033e"/><path d="M416.628,272.616l7.846-3.856c.631-.311.552-.851-.175-1.208l-7.775-3.822a3.159,3.159,0,0,0-2.457-.086L406.22,267.5c-.631.31-.552.851.175,1.208l7.775,3.82A3.153,3.153,0,0,0,416.628,272.616Z" transform="translate(-314.918 -224.257)" fill="#06033e"/><path d="M424.159,276.963,432,273.107c.631-.31.55-.851-.177-1.208l-7.773-3.82a3.169,3.169,0,0,0-2.459-.088l-7.846,3.857c-.629.31-.55.851.177,1.208l7.774,3.82A3.162,3.162,0,0,0,424.159,276.963Z" transform="translate(-334.565 -222.65)" fill="#06033e"/><path d="M431.69,281.311l7.846-3.856c.629-.31.55-.851-.177-1.208l-7.773-3.822a3.163,3.163,0,0,0-2.459-.086L421.28,276.2c-.631.31-.55.851.177,1.208l7.774,3.822A3.163,3.163,0,0,0,431.69,281.311Z" transform="translate(-354.213 -221.042)" fill="#06033e"/><path d="M439.219,285.659l7.848-3.857c.629-.31.55-.849-.177-1.208l-7.775-3.82a3.158,3.158,0,0,0-2.457-.086l-7.846,3.856c-.631.31-.552.851.175,1.208l7.775,3.82A3.159,3.159,0,0,0,439.219,285.659Z" transform="translate(-373.86 -219.435)" fill="#06033e"/><path d="M446.749,290.006l7.846-3.856c.631-.31.552-.851-.175-1.208l-7.775-3.82a3.159,3.159,0,0,0-2.457-.088l-7.848,3.857c-.629.31-.55.849.177,1.207l7.775,3.822A3.159,3.159,0,0,0,446.749,290.006Z" transform="translate(-393.507 -217.827)" fill="#06033e"/><path d="M454.28,294.354l7.846-3.857c.629-.308.55-.849-.177-1.207l-7.773-3.822a3.162,3.162,0,0,0-2.459-.086l-7.846,3.856c-.629.31-.55.851.177,1.208l7.773,3.822A3.168,3.168,0,0,0,454.28,294.354Z" transform="translate(-413.154 -216.22)" fill="#06033e"/><path d="M461.811,298.7l7.846-3.856c.629-.31.55-.851-.177-1.208l-7.773-3.82a3.163,3.163,0,0,0-2.459-.086l-7.846,3.856c-.631.31-.55.851.177,1.208l7.773,3.82A3.162,3.162,0,0,0,461.811,298.7Z" transform="translate(-432.801 -214.612)" fill="#06033e"/><path d="M349.031,266.482l23.108-11.357c.631-.31.552-.851-.175-1.208l-7.775-3.82a3.165,3.165,0,0,0-2.457-.088l-23.108,11.358c-.631.31-.552.851.177,1.208l7.774,3.82A3.158,3.158,0,0,0,349.031,266.482Z" transform="translate(-153.814 -229.299)" fill="#06033e"/><path d="M441.542,319.894l23.108-11.357c.631-.311.552-.851-.177-1.208l-7.773-3.822a3.162,3.162,0,0,0-2.459-.086l-23.107,11.357c-.631.31-.552.851.175,1.208l7.775,3.82A3.158,3.158,0,0,0,441.542,319.894Z" transform="translate(-395.183 -209.55)" fill="#06033e"/><path d="M422.4,310.283l7.846-3.856c.631-.31.55-.851-.177-1.208l-9.26-4.552a3.162,3.162,0,0,0-2.459-.086l-7.846,3.856c-.629.31-.55.851.177,1.208l9.26,4.552A3.156,3.156,0,0,0,422.4,310.283Z" transform="translate(-327.583 -210.6)" fill="#06033e"/><path d="M364.792,279.334l12.548-6.167c.631-.31.552-.851-.175-1.208l-9.262-4.552a3.159,3.159,0,0,0-2.457-.088L352.9,273.488c-.629.31-.55.851.177,1.208l9.26,4.552A3.162,3.162,0,0,0,364.792,279.334Z" transform="translate(-181.983 -222.898)" fill="#06033e"/><path d="M412.221,306.717l12.549-6.167c.629-.31.55-.851-.177-1.208l-9.26-4.552a3.163,3.163,0,0,0-2.459-.086l-12.548,6.167c-.631.31-.552.851.175,1.208l9.262,4.552A3.159,3.159,0,0,0,412.221,306.717Z" transform="translate(-305.731 -212.773)" fill="#06033e"/><path d="M375.657,285.608l12.549-6.168c.629-.31.55-.851-.177-1.208l-9.262-4.552a3.159,3.159,0,0,0-2.457-.086l-12.548,6.167c-.631.311-.552.851.175,1.208l9.262,4.552A3.159,3.159,0,0,0,375.657,285.608Z" transform="translate(-210.33 -220.579)" fill="#06033e"/><path d="M418.717,273.568l-54.556,26.813c-.677.333-.677.871,0,1.2l9.444,4.642a3.136,3.136,0,0,0,2.452,0l54.556-26.813Z" transform="translate(-252.823 -220.511)" fill="#06033e"/><path d="M441.44,315.536l-8.74,4.3c-.515.253-.451.7.145.99l3.789,1.861a2.591,2.591,0,0,0,2.015.071l8.739-4.3c.516-.253.452-.7-.145-.99l-3.788-1.862A2.592,2.592,0,0,0,441.44,315.536Z" transform="translate(-380.489 -205.056)" fill="#06033e"/><path d="M433.849,311.152l-8.741,4.3c-.516.255-.452.7.145.99l3.788,1.861a2.586,2.586,0,0,0,2.015.071l8.741-4.3c.517-.253.452-.7-.145-.989l-3.788-1.863A2.591,2.591,0,0,0,433.849,311.152Z" transform="translate(-360.679 -206.677)" fill="#06033e"/><path d="M426.317,306.805l-8.741,4.3c-.515.253-.451.7.145.99l3.789,1.862a2.591,2.591,0,0,0,2.015.071l8.739-4.3c.517-.253.452-.7-.145-.99l-3.788-1.862A2.591,2.591,0,0,0,426.317,306.805Z" transform="translate(-341.032 -208.284)" fill="#06033e"/><path d="M438.005,308.752l-8.739,4.294c-.517.255-.452.7.145.99L433.2,315.9a2.592,2.592,0,0,0,2.015.071l8.741-4.3c.517-.255.451-.7-.145-.99l-3.789-1.863A2.585,2.585,0,0,0,438.005,308.752Z" transform="translate(-371.528 -207.565)" fill="#06033e"/></g><g transform="translate(127.399 184.254)" opacity="0.4"><path d="M342.2,263.98l7.846-3.856c.631-.31.55-.851-.177-1.208l-9.26-4.552a3.162,3.162,0,0,0-2.459-.086l-7.846,3.856c-.629.31-.55.851.177,1.208l9.26,4.552A3.163,3.163,0,0,0,342.2,263.98Z" transform="translate(-118.339 -227.721)" fill="#06033e"/><path d="M349.733,268.329l7.846-3.857c.629-.31.55-.849-.177-1.207l-9.26-4.552a3.163,3.163,0,0,0-2.459-.088l-7.846,3.857c-.631.31-.552.849.177,1.207l9.26,4.552A3.163,3.163,0,0,0,349.733,268.329Z" transform="translate(-137.987 -226.113)" fill="#06033e"/><path d="M357.262,272.675l7.846-3.856c.631-.31.552-.851-.175-1.208l-9.262-4.552a3.158,3.158,0,0,0-2.457-.086l-7.846,3.856c-.631.31-.552.851.175,1.208l9.262,4.552A3.158,3.158,0,0,0,357.262,272.675Z" transform="translate(-157.634 -224.506)" fill="#06033e"/><path d="M366.191,268.888l7.846-3.856c.629-.31.55-.851-.177-1.208L366.086,260a3.162,3.162,0,0,0-2.459-.086l-7.846,3.856c-.631.31-.55.851.177,1.208l7.774,3.822A3.162,3.162,0,0,0,366.191,268.888Z" transform="translate(-183.32 -225.636)" fill="#06033e"/><path d="M373.72,273.235l7.846-3.856c.631-.31.552-.851-.175-1.208l-7.775-3.82a3.153,3.153,0,0,0-2.457-.086l-7.846,3.856c-.631.31-.552.851.175,1.208l7.775,3.82A3.159,3.159,0,0,0,373.72,273.235Z" transform="translate(-202.967 -224.028)" fill="#06033e"/><path d="M381.25,277.583l7.846-3.856c.631-.31.552-.851-.175-1.208l-7.775-3.82a3.159,3.159,0,0,0-2.457-.088l-7.848,3.856c-.629.31-.55.851.177,1.208l7.775,3.822A3.159,3.159,0,0,0,381.25,277.583Z" transform="translate(-222.614 -222.421)" fill="#06033e"/><path d="M388.781,281.931l7.846-3.857c.629-.31.55-.849-.177-1.208l-7.773-3.82a3.162,3.162,0,0,0-2.459-.086l-7.846,3.856c-.629.31-.55.851.177,1.208l7.773,3.82A3.163,3.163,0,0,0,388.781,281.931Z" transform="translate(-242.261 -220.813)" fill="#06033e"/><path d="M396.31,286.278l7.848-3.856c.629-.31.55-.851-.177-1.208l-7.773-3.82a3.163,3.163,0,0,0-2.459-.088l-7.846,3.857c-.631.31-.552.849.177,1.208l7.774,3.82A3.158,3.158,0,0,0,396.31,286.278Z" transform="translate(-261.909 -219.206)" fill="#06033e"/><path d="M403.841,290.626l7.846-3.856c.631-.31.552-.851-.175-1.208l-7.775-3.822a3.159,3.159,0,0,0-2.457-.086l-7.846,3.856c-.631.31-.552.851.175,1.208l7.775,3.822A3.159,3.159,0,0,0,403.841,290.626Z" transform="translate(-281.556 -217.598)" fill="#06033e"/><path d="M411.371,294.975l7.846-3.857c.631-.31.552-.851-.177-1.208l-7.774-3.82A3.152,3.152,0,0,0,408.81,286l-7.848,3.856c-.629.31-.55.851.177,1.208l7.773,3.82A3.169,3.169,0,0,0,411.371,294.975Z" transform="translate(-301.202 -215.991)" fill="#06033e"/><path d="M418.9,299.321l7.846-3.856c.629-.31.55-.851-.177-1.208l-7.774-3.822a3.163,3.163,0,0,0-2.459-.086l-7.846,3.856c-.629.311-.55.851.177,1.208l7.773,3.822A3.162,3.162,0,0,0,418.9,299.321Z" transform="translate(-320.85 -214.383)" fill="#06033e"/><path d="M426.432,303.669l7.848-3.857c.629-.31.55-.849-.177-1.207l-7.775-3.822a3.159,3.159,0,0,0-2.457-.086l-7.846,3.856c-.631.31-.552.851.175,1.208l7.775,3.82A3.159,3.159,0,0,0,426.432,303.669Z" transform="translate(-340.497 -212.775)" fill="#06033e"/><path d="M433.962,308.016l7.846-3.856c.631-.31.552-.851-.175-1.208l-7.775-3.82a3.159,3.159,0,0,0-2.457-.088l-7.846,3.857c-.631.31-.552.851.175,1.207l7.775,3.822A3.158,3.158,0,0,0,433.962,308.016Z" transform="translate(-360.144 -211.168)" fill="#06033e"/><path d="M377.285,266.83l7.846-3.857c.631-.31.552-.851-.175-1.208l-7.775-3.82a3.158,3.158,0,0,0-2.457-.086l-7.846,3.856c-.631.31-.552.851.175,1.208l7.775,3.82A3.158,3.158,0,0,0,377.285,266.83Z" transform="translate(-212.269 -226.397)" fill="#06033e"/><path d="M369.643,262.417l7.846-3.856c.631-.31.55-.851-.177-1.208l-7.773-3.822a3.168,3.168,0,0,0-2.459-.086l-7.846,3.856c-.629.31-.55.851.177,1.208l7.773,3.822A3.162,3.162,0,0,0,369.643,262.417Z" transform="translate(-192.328 -228.028)" fill="#06033e"/><path d="M356.361,259.2l16.9-8.3c.631-.31.55-.851-.177-1.208l-7.773-3.82a3.163,3.163,0,0,0-2.459-.088l-16.9,8.306c-.629.31-.55.851.177,1.208l7.775,3.82A3.158,3.158,0,0,0,356.361,259.2Z" transform="translate(-166.73 -230.864)" fill="#06033e"/><path d="M363.692,253.4l13.714-6.739c.629-.31.55-.851-.177-1.208l-7.773-3.82a3.163,3.163,0,0,0-2.459-.088l-13.713,6.741c-.631.31-.552.851.175,1.208l7.775,3.82A3.152,3.152,0,0,0,363.692,253.4Z" transform="translate(-182.67 -232.429)" fill="#06033e"/><path d="M384.815,271.177l7.846-3.856c.631-.31.55-.851-.177-1.208l-7.773-3.82a3.163,3.163,0,0,0-2.459-.088l-7.846,3.857c-.629.31-.55.849.177,1.207l7.773,3.822A3.162,3.162,0,0,0,384.815,271.177Z" transform="translate(-231.916 -224.789)" fill="#06033e"/><path d="M392.346,275.525l7.846-3.857c.629-.31.55-.849-.177-1.207l-7.774-3.822a3.162,3.162,0,0,0-2.459-.086l-7.846,3.856c-.629.31-.55.851.177,1.208l7.773,3.82A3.157,3.157,0,0,0,392.346,275.525Z" transform="translate(-251.563 -223.182)" fill="#06033e"/><path d="M399.876,279.872l7.848-3.856c.629-.31.55-.851-.177-1.208l-7.775-3.82a3.159,3.159,0,0,0-2.457-.088l-7.846,3.857c-.631.31-.552.851.175,1.208l7.775,3.82A3.158,3.158,0,0,0,399.876,279.872Z" transform="translate(-271.21 -221.574)" fill="#06033e"/><path d="M407.406,284.22l7.846-3.856c.631-.31.552-.851-.175-1.208l-7.775-3.822a3.159,3.159,0,0,0-2.457-.086L397,279.1c-.631.31-.552.851.175,1.208l7.775,3.822A3.158,3.158,0,0,0,407.406,284.22Z" transform="translate(-290.857 -219.967)" fill="#06033e"/><path d="M414.936,288.568l7.846-3.857c.631-.31.55-.851-.177-1.208l-7.774-3.82a3.162,3.162,0,0,0-2.459-.086l-7.846,3.856c-.629.31-.55.851.177,1.208l7.773,3.82A3.163,3.163,0,0,0,414.936,288.568Z" transform="translate(-310.504 -218.359)" fill="#06033e"/><path d="M422.468,292.915l7.846-3.856c.629-.31.55-.851-.177-1.208l-7.773-3.82a3.163,3.163,0,0,0-2.459-.088l-7.846,3.856c-.631.311-.55.851.177,1.208l7.773,3.822A3.162,3.162,0,0,0,422.468,292.915Z" transform="translate(-330.152 -216.752)" fill="#06033e"/><path d="M430,297.263l7.846-3.857c.631-.308.552-.849-.175-1.207l-7.775-3.822a3.159,3.159,0,0,0-2.457-.086l-7.846,3.856c-.631.31-.552.851.175,1.208l7.775,3.82A3.153,3.153,0,0,0,430,297.263Z" transform="translate(-349.799 -215.144)" fill="#06033e"/><path d="M437.527,301.61l7.846-3.856c.631-.31.552-.851-.175-1.208l-7.775-3.82a3.152,3.152,0,0,0-2.457-.086l-7.848,3.856c-.629.31-.55.851.177,1.208l7.775,3.82A3.158,3.158,0,0,0,437.527,301.61Z" transform="translate(-369.446 -213.536)" fill="#06033e"/><path d="M445.058,305.958,452.9,302.1c.629-.31.55-.851-.177-1.208l-7.773-3.822a3.162,3.162,0,0,0-2.459-.086l-7.846,3.856c-.629.31-.55.851.177,1.208l7.774,3.822A3.162,3.162,0,0,0,445.058,305.958Z" transform="translate(-389.093 -211.929)" fill="#06033e"/><path d="M452.682,314.918,469.8,306.5c.631-.31.55-.851-.177-1.208l-7.774-3.82a3.162,3.162,0,0,0-2.459-.086L442.272,309.8c-.629.31-.55.851.177,1.208l7.773,3.822A3.162,3.162,0,0,0,452.682,314.918Z" transform="translate(-418.257 -210.301)" fill="#06033e"/><path d="M469,306.1l14.45-7.1c.631-.31.552-.851-.175-1.208l-7.775-3.82a3.165,3.165,0,0,0-2.457-.088l-14.45,7.1c-.631.31-.552.851.175,1.208l7.775,3.82A3.153,3.153,0,0,0,469,306.1Z" transform="translate(-458.167 -213.077)" fill="#06033e"/><path d="M398,270.327l7.846-3.857c.629-.31.55-.851-.177-1.208l-7.774-3.82a3.163,3.163,0,0,0-2.459-.086l-7.846,3.856c-.629.31-.55.851.177,1.208l7.773,3.82A3.169,3.169,0,0,0,398,270.327Z" transform="translate(-266.322 -225.104)" fill="#06033e"/><path d="M390.285,265.871l7.848-3.857c.629-.308.55-.849-.177-1.207l-7.775-3.822a3.158,3.158,0,0,0-2.457-.086l-7.846,3.856c-.631.31-.552.851.175,1.208l7.775,3.82A3.159,3.159,0,0,0,390.285,265.871Z" transform="translate(-246.187 -226.751)" fill="#06033e"/><path d="M382.567,261.415l7.846-3.856c.631-.31.552-.851-.177-1.208l-7.773-3.822a3.159,3.159,0,0,0-2.457-.086l-7.847,3.856c-.629.31-.55.851.177,1.208l7.775,3.822A3.158,3.158,0,0,0,382.567,261.415Z" transform="translate(-226.05 -228.399)" fill="#06033e"/><path d="M374.851,256.959,382.7,253.1c.629-.31.55-.851-.177-1.208l-7.773-3.82a3.163,3.163,0,0,0-2.459-.088l-7.846,3.857c-.631.31-.55.851.177,1.207l7.773,3.822A3.163,3.163,0,0,0,374.851,256.959Z" transform="translate(-205.915 -230.047)" fill="#06033e"/><path d="M405.534,274.674l7.846-3.856c.629-.31.55-.851-.177-1.208l-7.773-3.82a3.157,3.157,0,0,0-2.459-.088l-7.846,3.856c-.631.311-.55.851.177,1.208l7.773,3.822A3.163,3.163,0,0,0,405.534,274.674Z" transform="translate(-285.969 -223.496)" fill="#06033e"/><path d="M413.063,279.022l7.846-3.856c.631-.311.552-.851-.175-1.208l-7.775-3.822a3.159,3.159,0,0,0-2.457-.086l-7.846,3.856c-.631.31-.552.851.175,1.208l7.775,3.82A3.159,3.159,0,0,0,413.063,279.022Z" transform="translate(-305.617 -221.889)" fill="#06033e"/><path d="M420.593,283.369l7.846-3.856c.631-.31.552-.851-.177-1.208l-7.773-3.82a3.159,3.159,0,0,0-2.457-.088l-7.847,3.857c-.629.31-.55.851.177,1.207l7.775,3.822A3.158,3.158,0,0,0,420.593,283.369Z" transform="translate(-325.263 -220.281)" fill="#06033e"/><path d="M428.124,287.717l7.846-3.856c.629-.31.55-.851-.177-1.208l-7.774-3.822a3.162,3.162,0,0,0-2.459-.086l-7.846,3.856c-.629.31-.55.851.177,1.208l7.773,3.822A3.162,3.162,0,0,0,428.124,287.717Z" transform="translate(-344.911 -218.674)" fill="#06033e"/><path d="M435.653,292.064l7.848-3.856c.629-.31.55-.851-.177-1.208l-7.775-3.82a3.159,3.159,0,0,0-2.457-.086l-7.846,3.856c-.631.31-.552.851.177,1.208l7.773,3.82A3.153,3.153,0,0,0,435.653,292.064Z" transform="translate(-364.558 -217.066)" fill="#06033e"/><path d="M443.184,296.412l7.846-3.856c.631-.31.552-.851-.175-1.208l-7.775-3.82a3.153,3.153,0,0,0-2.457-.088l-7.846,3.856c-.631.31-.552.851.175,1.208l7.775,3.822A3.159,3.159,0,0,0,443.184,296.412Z" transform="translate(-384.205 -215.459)" fill="#06033e"/><path d="M450.715,300.76l7.846-3.857c.631-.31.55-.849-.177-1.207l-7.773-3.822a3.162,3.162,0,0,0-2.459-.086l-7.846,3.856c-.629.31-.55.851.177,1.208l7.773,3.82A3.163,3.163,0,0,0,450.715,300.76Z" transform="translate(-403.852 -213.851)" fill="#06033e"/><path d="M458.245,305.107l7.846-3.856c.629-.31.55-.851-.177-1.208l-7.773-3.82a3.163,3.163,0,0,0-2.459-.088l-7.846,3.857c-.629.31-.55.851.177,1.208l7.773,3.82A3.163,3.163,0,0,0,458.245,305.107Z" transform="translate(-423.499 -212.244)" fill="#06033e"/><path d="M465.775,309.455l7.848-3.856c.629-.31.55-.851-.177-1.208l-7.775-3.822a3.159,3.159,0,0,0-2.457-.086l-7.846,3.856c-.631.31-.552.851.175,1.208l7.775,3.822A3.159,3.159,0,0,0,465.775,309.455Z" transform="translate(-443.147 -210.636)" fill="#06033e"/><path d="M394.037,259.573l7.846-3.856c.631-.31.552-.851-.177-1.208l-7.773-3.822a3.159,3.159,0,0,0-2.457-.086l-7.848,3.856c-.629.31-.55.851.177,1.208l7.773,3.822A3.163,3.163,0,0,0,394.037,259.573Z" transform="translate(-255.977 -229.08)" fill="#06033e"/><path d="M386.545,255.247l7.846-3.856c.629-.31.55-.851-.177-1.208l-7.773-3.822a3.162,3.162,0,0,0-2.459-.086l-7.846,3.856c-.629.31-.55.851.177,1.208l7.773,3.822A3.162,3.162,0,0,0,386.545,255.247Z" transform="translate(-236.427 -230.68)" fill="#06033e"/><path d="M379.053,250.921l7.846-3.856c.629-.31.55-.851-.177-1.208l-7.773-3.822a3.162,3.162,0,0,0-2.459-.086l-7.846,3.856c-.631.31-.55.851.177,1.208l7.773,3.822A3.162,3.162,0,0,0,379.053,250.921Z" transform="translate(-216.878 -232.279)" fill="#06033e"/><path d="M371.559,246.6l7.847-3.856c.629-.31.55-.851-.177-1.208l-7.775-3.822a3.165,3.165,0,0,0-2.457-.086l-7.846,3.856c-.631.31-.552.851.175,1.208l7.775,3.822A3.158,3.158,0,0,0,371.559,246.6Z" transform="translate(-197.329 -233.879)" fill="#06033e"/><path d="M374.059,241.457l7.848-3.857c.629-.31.55-.849-.177-1.208l-2.57-1.263a3.162,3.162,0,0,0-2.459-.086l-7.846,3.856c-.629.31-.55.851.177,1.208l2.57,1.263A3.159,3.159,0,0,0,374.059,241.457Z" transform="translate(-212.227 -234.833)" fill="#06033e"/><path d="M383.837,247.1l7.848-3.856c.629-.31.55-.851-.177-1.208l-2.57-1.263a3.163,3.163,0,0,0-2.459-.088l-7.846,3.857c-.629.31-.55.851.177,1.208l2.57,1.263A3.159,3.159,0,0,0,383.837,247.1Z" transform="translate(-237.739 -232.746)" fill="#06033e"/><path d="M391.3,251.41l7.846-3.856c.629-.31.55-.851-.177-1.208l-2.57-1.263a3.159,3.159,0,0,0-2.457-.088l-7.848,3.857c-.629.31-.55.851.177,1.208l2.57,1.263A3.162,3.162,0,0,0,391.3,251.41Z" transform="translate(-257.207 -231.153)" fill="#06033e"/><path d="M398.76,255.718l7.846-3.856c.631-.31.552-.851-.175-1.208l-2.57-1.263a3.163,3.163,0,0,0-2.459-.088l-7.846,3.857c-.631.31-.55.849.177,1.207l2.57,1.264A3.158,3.158,0,0,0,398.76,255.718Z" transform="translate(-276.675 -229.56)" fill="#06033e"/><path d="M406.223,260.026l7.846-3.856c.629-.31.55-.851-.177-1.208l-2.57-1.263a3.163,3.163,0,0,0-2.459-.088l-7.846,3.857c-.629.31-.55.849.177,1.207l2.57,1.264A3.162,3.162,0,0,0,406.223,260.026Z" transform="translate(-296.143 -227.967)" fill="#06033e"/><path d="M447.88,284.076l7.846-3.856c.629-.31.55-.851-.177-1.208l-2.57-1.263a3.158,3.158,0,0,0-2.457-.086l-7.847,3.856c-.629.31-.55.851.177,1.208l2.57,1.263A3.162,3.162,0,0,0,447.88,284.076Z" transform="translate(-404.829 -219.074)" fill="#06033e"/><path d="M455.341,288.384l7.846-3.856c.631-.31.552-.851-.175-1.208l-2.571-1.263a3.158,3.158,0,0,0-2.457-.086l-7.846,3.856c-.631.31-.552.851.177,1.208l2.57,1.263A3.153,3.153,0,0,0,455.341,288.384Z" transform="translate(-424.297 -217.481)" fill="#06033e"/><path d="M462.8,292.692l7.846-3.856c.629-.31.55-.851-.177-1.208l-2.57-1.263a3.162,3.162,0,0,0-2.459-.086l-7.846,3.856c-.629.31-.55.851.177,1.208l2.57,1.263A3.163,3.163,0,0,0,462.8,292.692Z" transform="translate(-443.765 -215.888)" fill="#06033e"/><path d="M470.264,297l7.846-3.856c.631-.31.552-.851-.177-1.208l-2.57-1.263a3.159,3.159,0,0,0-2.457-.086l-7.846,3.856c-.631.31-.552.851.175,1.208l2.571,1.263A3.158,3.158,0,0,0,470.264,297Z" transform="translate(-463.233 -214.295)" fill="#06033e"/><path d="M401.568,263.921l7.846-3.857c.629-.31.55-.851-.177-1.207l-7.773-3.822a3.162,3.162,0,0,0-2.459-.086l-7.846,3.856c-.629.31-.55.851.177,1.208l7.773,3.82A3.163,3.163,0,0,0,401.568,263.921Z" transform="translate(-275.624 -227.472)" fill="#06033e"/><path d="M409.1,268.268l7.848-3.856c.629-.31.55-.851-.177-1.208l-7.775-3.82a3.159,3.159,0,0,0-2.457-.088l-7.846,3.856c-.631.311-.552.851.175,1.208l7.775,3.822A3.159,3.159,0,0,0,409.1,268.268Z" transform="translate(-295.271 -225.865)" fill="#06033e"/><path d="M416.628,272.616l7.846-3.856c.631-.311.552-.851-.175-1.208l-7.775-3.822a3.159,3.159,0,0,0-2.457-.086L406.22,267.5c-.631.31-.552.851.175,1.208l7.775,3.82A3.153,3.153,0,0,0,416.628,272.616Z" transform="translate(-314.918 -224.257)" fill="#06033e"/><path d="M424.159,276.963,432,273.107c.631-.31.55-.851-.177-1.208l-7.773-3.82a3.169,3.169,0,0,0-2.459-.088l-7.846,3.857c-.629.31-.55.851.177,1.208l7.774,3.82A3.162,3.162,0,0,0,424.159,276.963Z" transform="translate(-334.565 -222.65)" fill="#06033e"/><path d="M431.69,281.311l7.846-3.856c.629-.31.55-.851-.177-1.208l-7.773-3.822a3.163,3.163,0,0,0-2.459-.086L421.28,276.2c-.631.31-.55.851.177,1.208l7.774,3.822A3.163,3.163,0,0,0,431.69,281.311Z" transform="translate(-354.213 -221.042)" fill="#06033e"/><path d="M439.219,285.659l7.848-3.857c.629-.31.55-.849-.177-1.208l-7.775-3.82a3.158,3.158,0,0,0-2.457-.086l-7.846,3.856c-.631.31-.552.851.175,1.208l7.775,3.82A3.159,3.159,0,0,0,439.219,285.659Z" transform="translate(-373.86 -219.435)" fill="#06033e"/><path d="M446.749,290.006l7.846-3.856c.631-.31.552-.851-.175-1.208l-7.775-3.82a3.159,3.159,0,0,0-2.457-.088l-7.848,3.857c-.629.31-.55.849.177,1.207l7.775,3.822A3.159,3.159,0,0,0,446.749,290.006Z" transform="translate(-393.507 -217.827)" fill="#06033e"/><path d="M454.28,294.354l7.846-3.857c.629-.308.55-.849-.177-1.207l-7.773-3.822a3.162,3.162,0,0,0-2.459-.086l-7.846,3.856c-.629.31-.55.851.177,1.208l7.773,3.822A3.168,3.168,0,0,0,454.28,294.354Z" transform="translate(-413.154 -216.22)" fill="#06033e"/><path d="M461.811,298.7l7.846-3.856c.629-.31.55-.851-.177-1.208l-7.773-3.82a3.163,3.163,0,0,0-2.459-.086l-7.846,3.856c-.631.31-.55.851.177,1.208l7.773,3.82A3.162,3.162,0,0,0,461.811,298.7Z" transform="translate(-432.801 -214.612)" fill="#06033e"/><path d="M349.031,266.482l23.108-11.357c.631-.31.552-.851-.175-1.208l-7.775-3.82a3.165,3.165,0,0,0-2.457-.088l-23.108,11.358c-.631.31-.552.851.177,1.208l7.774,3.82A3.158,3.158,0,0,0,349.031,266.482Z" transform="translate(-153.814 -229.299)" fill="#06033e"/><path d="M441.542,319.894l23.108-11.357c.631-.311.552-.851-.177-1.208l-7.773-3.822a3.162,3.162,0,0,0-2.459-.086l-23.107,11.357c-.631.31-.552.851.175,1.208l7.775,3.82A3.158,3.158,0,0,0,441.542,319.894Z" transform="translate(-395.183 -209.55)" fill="#06033e"/><path d="M422.4,310.283l7.846-3.856c.631-.31.55-.851-.177-1.208l-9.26-4.552a3.162,3.162,0,0,0-2.459-.086l-7.846,3.856c-.629.31-.55.851.177,1.208l9.26,4.552A3.156,3.156,0,0,0,422.4,310.283Z" transform="translate(-327.583 -210.6)" fill="#06033e"/><path d="M364.792,279.334l12.548-6.167c.631-.31.552-.851-.175-1.208l-9.262-4.552a3.159,3.159,0,0,0-2.457-.088L352.9,273.488c-.629.31-.55.851.177,1.208l9.26,4.552A3.162,3.162,0,0,0,364.792,279.334Z" transform="translate(-181.983 -222.898)" fill="#06033e"/><path d="M412.221,306.717l12.549-6.167c.629-.31.55-.851-.177-1.208l-9.26-4.552a3.163,3.163,0,0,0-2.459-.086l-12.548,6.167c-.631.31-.552.851.175,1.208l9.262,4.552A3.159,3.159,0,0,0,412.221,306.717Z" transform="translate(-305.731 -212.773)" fill="#06033e"/><path d="M375.657,285.608l12.549-6.168c.629-.31.55-.851-.177-1.208l-9.262-4.552a3.159,3.159,0,0,0-2.457-.086l-12.548,6.167c-.631.311-.552.851.175,1.208l9.262,4.552A3.159,3.159,0,0,0,375.657,285.608Z" transform="translate(-210.33 -220.579)" fill="#06033e"/><path d="M418.717,273.568l-54.556,26.813c-.677.333-.677.871,0,1.2l9.444,4.642a3.136,3.136,0,0,0,2.452,0l54.556-26.813Z" transform="translate(-252.823 -220.511)" fill="#06033e"/><path d="M441.44,315.536l-8.74,4.3c-.515.253-.451.7.145.99l3.789,1.861a2.591,2.591,0,0,0,2.015.071l8.739-4.3c.516-.253.452-.7-.145-.99l-3.788-1.862A2.592,2.592,0,0,0,441.44,315.536Z" transform="translate(-380.489 -205.056)" fill="#06033e"/><path d="M433.849,311.152l-8.741,4.3c-.516.255-.452.7.145.99l3.788,1.861a2.586,2.586,0,0,0,2.015.071l8.741-4.3c.517-.253.452-.7-.145-.989l-3.788-1.863A2.591,2.591,0,0,0,433.849,311.152Z" transform="translate(-360.679 -206.677)" fill="#06033e"/><path d="M426.317,306.805l-8.741,4.3c-.515.253-.451.7.145.99l3.789,1.862a2.591,2.591,0,0,0,2.015.071l8.739-4.3c.517-.253.452-.7-.145-.99l-3.788-1.862A2.591,2.591,0,0,0,426.317,306.805Z" transform="translate(-341.032 -208.284)" fill="#06033e"/><path d="M438.005,308.752l-8.739,4.294c-.517.255-.452.7.145.99L433.2,315.9a2.592,2.592,0,0,0,2.015.071l8.741-4.3c.517-.255.451-.7-.145-.99l-3.789-1.863A2.585,2.585,0,0,0,438.005,308.752Z" transform="translate(-371.528 -207.565)" fill="#06033e"/></g><path d="M427.47,373.394,658.956,259.623a8.15,8.15,0,0,0,4.243-9.736L610.849,105.2c-1.3-3.587-5.3-5.046-8.938-3.257L370.424,215.711a8.15,8.15,0,0,0-4.243,9.736l52.35,144.689C419.828,373.724,423.83,375.182,427.47,373.394Z" transform="translate(-361.83 -100.001)" fill="url(#d)"/><path d="M427.858,366.918,652.386,256.475a7.8,7.8,0,0,0,4.061-9.317L606.4,108.836c-1.241-3.434-5.07-4.83-8.554-3.118L373.316,216.161a7.8,7.8,0,0,0-4.06,9.317L419.3,363.8C420.544,367.234,424.376,368.63,427.858,366.918Z" transform="translate(-360.036 -98.591)" fill="url(#e)"/><path d="M427.858,366.918,652.386,256.475a7.8,7.8,0,0,0,4.061-9.317L606.4,108.836c-1.241-3.434-5.07-4.83-8.554-3.118L373.316,216.161a7.8,7.8,0,0,0-4.06,9.317L419.3,363.8C420.544,367.234,424.376,368.63,427.858,366.918Z" transform="translate(-360.036 -98.591)" fill="#06033e" opacity="0.4"/><path d="M427.858,366.918,652.386,256.475a7.8,7.8,0,0,0,4.061-9.317L606.4,108.836c-1.241-3.434-5.07-4.83-8.554-3.118L373.316,216.161a7.8,7.8,0,0,0-4.06,9.317L419.3,363.8C420.544,367.234,424.376,368.63,427.858,366.918Z" transform="translate(-360.036 -98.591)" fill="#06033e" opacity="0.4"/><path d="M447.824,313.6l151.994-74.7a5.349,5.349,0,0,0,2.785-6.393l-34.372-95a4.1,4.1,0,0,0-5.87-2.14l-151.994,74.7a5.351,5.351,0,0,0-2.785,6.393l34.373,95A4.1,4.1,0,0,0,447.824,313.6Z" transform="translate(-367.939 -87.545)" fill="#06033e" opacity="0.5"/><g transform="translate(59.912 49.609)"><path d="M435.062,315.275l151.994-74.7a5.351,5.351,0,0,0,2.785-6.393l-34.372-95a4.1,4.1,0,0,0-5.87-2.14l-151.994,74.7a5.35,5.35,0,0,0-2.785,6.393l34.372,95A4.1,4.1,0,0,0,435.062,315.275Z" transform="translate(-394.553 -136.535)" fill="url(#f)"/></g><g transform="translate(59.912 49.609)" opacity="0.5"><path d="M435.062,315.275l151.994-74.7a5.351,5.351,0,0,0,2.785-6.393l-34.372-95a4.1,4.1,0,0,0-5.87-2.14l-151.994,74.7a5.35,5.35,0,0,0-2.785,6.393l34.372,95A4.1,4.1,0,0,0,435.062,315.275Z" transform="translate(-394.553 -136.535)" fill="#06033e"/></g><path d="M420.124,211.74l151.994-74.7a4.335,4.335,0,0,1,4.277.125,4.656,4.656,0,0,0-2.195.478l-151.994,74.7a5.353,5.353,0,0,0-2.785,6.394l34.372,95a3.947,3.947,0,0,0,1.593,2.015,3.924,3.924,0,0,1-3.675-2.618l-34.372-95A5.35,5.35,0,0,1,420.124,211.74Z" transform="translate(-357.158 -86.926)" fill="#fff"/><path d="M370.75,338.552a13.107,13.107,0,0,0,5.632-1.123L437.276,307.5c1.614-.794,2.5-1.927,2.5-3.194,0-1.468-1.225-2.913-3.358-3.963l-31.345-15.407c-3.83-1.881-9.452-2.067-12.8-.419l-60.9,29.928c-1.614.793-2.5,1.926-2.5,3.193,0,1.47,1.225,2.915,3.358,3.964l31.345,15.406A16.749,16.749,0,0,0,370.75,338.552Zm27.123-53.644a14.933,14.933,0,0,1,6.322,1.325L435.54,301.64c1.577.775,2.481,1.748,2.481,2.667s-.883,1.533-1.625,1.9L375.5,336.132c-2.76,1.357-7.818,1.167-11.045-.419l-31.345-15.407c-1.577-.774-2.481-1.746-2.481-2.667s.883-1.533,1.625-1.9l60.894-29.929A11.06,11.06,0,0,1,397.873,284.909Z" transform="translate(-78.627 -32.624)" fill="#06033e" opacity="0.4"/></g><g transform="translate(394.853 181.417)"><g transform="translate(42.262 6.387)"><path d="M438.393,175.409l9.4-4.617a1.953,1.953,0,0,0,1.044-2.3h0a1.464,1.464,0,0,0-2.113-.749l-9.4,4.619a1.953,1.953,0,0,0-1.044,2.3h0A1.463,1.463,0,0,0,438.393,175.409Z" transform="translate(-413.808 -162.943)" fill="#fff"/><path d="M449.532,184.033l13.856-6.81a1.954,1.954,0,0,0,1.044-2.3h0a1.463,1.463,0,0,0-2.113-.748l-13.856,6.809a1.955,1.955,0,0,0-1.044,2.3h0A1.464,1.464,0,0,0,449.532,184.033Z" transform="translate(-447.331 -160.564)" fill="#fff"/><path d="M426.615,201.409l9.4-4.617a1.956,1.956,0,0,0,1.044-2.3h0a1.464,1.464,0,0,0-2.113-.748l-9.4,4.619a1.954,1.954,0,0,0-1.044,2.3h0A1.464,1.464,0,0,0,426.615,201.409Z" transform="translate(-383.08 -153.329)" fill="#fff"/><path d="M436.245,209.159,450.1,202.35a1.955,1.955,0,0,0,1.044-2.3h0a1.464,1.464,0,0,0-2.113-.749l-13.856,6.81a1.952,1.952,0,0,0-1.044,2.3h0A1.463,1.463,0,0,0,436.245,209.159Z" transform="translate(-412.662 -151.273)" fill="#fff"/><path d="M423.091,170.308l5.87-2.885a1.953,1.953,0,0,0,1.044-2.3h0a1.464,1.464,0,0,0-2.113-.749l-5.87,2.885a1.956,1.956,0,0,0-1.044,2.3h0A1.464,1.464,0,0,0,423.091,170.308Z" transform="translate(-370.358 -164.188)" fill="#fff"/><path d="M426.57,183.713,444.5,174.9a1.953,1.953,0,0,0,1.044-2.3h0a1.464,1.464,0,0,0-2.113-.749L425.5,180.665a1.954,1.954,0,0,0-1.044,2.3h0A1.463,1.463,0,0,0,426.57,183.713Z" transform="translate(-391.5 -161.424)" fill="#fff"/><path d="M423.787,187.11l5.872-2.885a1.958,1.958,0,0,0,1.044-2.3h0a1.465,1.465,0,0,0-2.113-.748l-5.87,2.885a1.957,1.957,0,0,0-1.046,2.3h0A1.465,1.465,0,0,0,423.787,187.11Z" transform="translate(-372.176 -157.975)" fill="#fff"/><path d="M436.456,221.112l15.679-7.706a1.953,1.953,0,0,0,1.044-2.3h0a1.465,1.465,0,0,0-2.113-.749l-15.679,7.706a1.957,1.957,0,0,0-1.044,2.3h0A1.464,1.464,0,0,0,436.456,221.112Z" transform="translate(-415.037 -147.185)" fill="#fff"/><path d="M421,195.4l3.768-1.851a1.956,1.956,0,0,0,1.044-2.3h0a1.464,1.464,0,0,0-2.113-.748l-3.768,1.852a1.956,1.956,0,0,0-1.044,2.3h0A1.464,1.464,0,0,0,421,195.4Z" transform="translate(-362.814 -154.526)" fill="#fff"/><path d="M418.223,205.178l4.679-2.3a1.953,1.953,0,0,0,1.044-2.3h0a1.464,1.464,0,0,0-2.113-.749l-4.679,2.3a1.956,1.956,0,0,0-1.044,2.3h0A1.464,1.464,0,0,0,418.223,205.178Z" transform="translate(-356.466 -151.078)" fill="#fff"/><path d="M424.777,212.726l12.337-6.064a1.954,1.954,0,0,0,1.044-2.3h0a1.464,1.464,0,0,0-2.113-.748l-12.337,6.063a1.955,1.955,0,0,0-1.044,2.3h0A1.464,1.464,0,0,0,424.777,212.726Z" transform="translate(-381.224 -149.679)" fill="#fff"/><path d="M416.831,211.9l8.869-4.359a1.957,1.957,0,0,0,1.046-2.3h0a1.466,1.466,0,0,0-2.114-.748l-8.869,4.36a1.954,1.954,0,0,0-1.044,2.3h0A1.464,1.464,0,0,0,416.831,211.9Z" transform="translate(-357.027 -149.354)" fill="#fff"/><path d="M451.019,224.637l5.7-2.8a1.954,1.954,0,0,0,1.044-2.3h0a1.464,1.464,0,0,0-2.113-.748l-5.7,2.8a1.953,1.953,0,0,0-1.044,2.3h0A1.464,1.464,0,0,0,451.019,224.637Z" transform="translate(-443.051 -144.068)" fill="#fff"/><path d="M431.262,196.246l15.679-7.706a1.954,1.954,0,0,0,1.044-2.3h0a1.463,1.463,0,0,0-2.113-.748l-15.679,7.7a1.955,1.955,0,0,0-1.044,2.3h0A1.464,1.464,0,0,0,431.262,196.246Z" transform="translate(-401.486 -156.379)" fill="#fff"/></g><path d="M425.179,192.992l27.325-13.43a1.952,1.952,0,0,0,1.044-2.3h0a1.464,1.464,0,0,0-2.113-.748L424.11,189.942a1.956,1.956,0,0,0-1.044,2.3h0A1.464,1.464,0,0,0,425.179,192.992Z" transform="translate(-355 -153.312)" fill="#e8975b"/><path d="M422.4,196.595l15.679-7.706a1.955,1.955,0,0,0,1.044-2.3h0a1.465,1.465,0,0,0-2.113-.749l-15.679,7.706a1.955,1.955,0,0,0-1.044,2.3h0A1.464,1.464,0,0,0,422.4,196.595Z" transform="translate(-336.092 -149.864)" fill="#e8975b"/><path d="M444.857,199.189l5.7-2.8a1.956,1.956,0,0,0,1.044-2.3h0a1.464,1.464,0,0,0-2.113-.748l-5.7,2.8a1.953,1.953,0,0,0-1.044,2.3h0A1.465,1.465,0,0,0,444.857,199.189Z" transform="translate(-384.71 -147.09)" fill="#e8975b"/><path d="M463.443,201.834l33.733-16.58a1.954,1.954,0,0,0,1.044-2.3h0a1.464,1.464,0,0,0-2.113-.748l-33.733,16.58a1.952,1.952,0,0,0-1.044,2.3h0A1.464,1.464,0,0,0,463.443,201.834Z" transform="translate(-461.242 -151.207)" fill="#e8975b"/><path d="M419.614,207.478l18.847-9.262a1.953,1.953,0,0,0,1.044-2.3h0a1.464,1.464,0,0,0-2.113-.749l-18.847,9.264a1.956,1.956,0,0,0-1.044,2.3h0A1.465,1.465,0,0,0,419.614,207.478Z" transform="translate(-332.002 -146.415)" fill="#f8359e"/><path d="M424.482,169.57l13.856-6.809a1.956,1.956,0,0,0,1.044-2.3h0a1.464,1.464,0,0,0-2.113-.748l-13.856,6.809a1.956,1.956,0,0,0-1.044,2.3h0A1.464,1.464,0,0,0,424.482,169.57Z" transform="translate(-339.712 -159.525)" fill="#f8359e"/><path d="M410.571,217.28l16.047-7.887a1.954,1.954,0,0,0,1.044-2.3h0a1.465,1.465,0,0,0-2.113-.749L409.5,214.231a1.954,1.954,0,0,0-1.044,2.3h0A1.464,1.464,0,0,0,410.571,217.28Z" transform="translate(-305.607 -142.282)" fill="#e8975b"/></g><g transform="translate(362.666 208.917)"><path d="M479.821,185.342l6.868-3.376a1.428,1.428,0,0,0,.764-1.681h0a1.07,1.07,0,0,0-1.545-.547l-6.869,3.375a1.428,1.428,0,0,0-.763,1.681h0A1.07,1.07,0,0,0,479.821,185.342Z" transform="translate(-445.569 -179.601)" fill="#fff"/><path d="M487.963,190.043l6.869-3.376a1.427,1.427,0,0,0,.763-1.681h0a1.069,1.069,0,0,0-1.543-.547l-6.869,3.375a1.428,1.428,0,0,0-.763,1.681h0A1.069,1.069,0,0,0,487.963,190.043Z" transform="translate(-466.813 -177.863)" fill="#fff"/><path d="M496.1,194.744l6.869-3.376a1.428,1.428,0,0,0,.763-1.681h0a1.072,1.072,0,0,0-1.545-.548l-6.868,3.376a1.428,1.428,0,0,0-.763,1.681h0A1.07,1.07,0,0,0,496.1,194.744Z" transform="translate(-488.056 -176.125)" fill="#fff"/><path d="M504.248,196.174l.208-.105a1.428,1.428,0,0,0,.763-1.681h0a1.071,1.071,0,0,0-1.545-.548l-.206.105a1.431,1.431,0,0,0-.764,1.682h0A1.07,1.07,0,0,0,504.248,196.174Z" transform="translate(-502.639 -174.387)" fill="#f8359e"/></g></g></svg>