<svg xmlns="http://www.w3.org/2000/svg" width="101" height="101" viewBox="0 0 101 101"><g transform="translate(0 0.045)"><circle cx="50.5" cy="50.5" r="50.5" transform="translate(0 -0.045)" fill="#2a4997"/><path d="M142.728,154.6q-6.045,0-9.271,2.208l-9.734-9.6h0a11.163,11.163,0,0,0-5.388-3.232c-2.992-.8-10.136-.653-24.553-.653v43.524l29.074,29.074c.963.055,1.933.086,2.909.086A50.494,50.494,0,0,0,174.53,178.59L153.944,158h0C151.337,155.372,147.442,154.6,142.728,154.6Z" transform="translate(-75.292 -115.043)" fill="#263364"/><g transform="translate(18.491 28.26)"><path d="M93.783,186.84V143.316c14.416,0,21.561-.149,24.553.653a11.414,11.414,0,0,1,6.264,4.26c3.259,4.238,3.115,11.373,1.069,15.216a12.379,12.379,0,0,1-8.253,6.354c-3.862.765-9.579.623-14.845.623V186.84Zm8.788-36.161v12.351c8.9,0,12.377.288,14.5-2.82a6.183,6.183,0,0,0-.4-7.3C114.446,150.442,112.012,150.679,102.571,150.679Z" transform="translate(-93.783 -143.305)" fill="#76c8da"/><path d="M268.844,223.825l8.372-1.277c.779,3.55,3.174,4.958,6.739,4.958,2.721,0,5.967-.682,5.967-3.414,0-1.836-1.536-2.241-3.385-2.672q-10.094-2.227-12.8-4.067a8.122,8.122,0,0,1-3.741-7.1,8.745,8.745,0,0,1,3.236-6.888q3.235-2.79,10.035-2.791c6.889,0,12.028,1.654,13.954,8.343l-7.868,1.455a4.868,4.868,0,0,0-1.915-2.82c-2.149-1.493-7.081-1.132-8.743-.059a1.884,1.884,0,0,0-.119,3.206c2.415,1.781,12.738,2.43,17.1,6.057a7.714,7.714,0,0,1,2.613,6.2,9.524,9.524,0,0,1-3.622,7.452q-3.623,3.117-10.718,3.117-6.443,0-10.2-2.613A12.034,12.034,0,0,1,268.844,223.825Z" transform="translate(-234.328 -189.286)" fill="#76c8da"/></g></g></svg>